<svg xmlns="http://www.w3.org/2000/svg" width="600" height="400" viewBox="0 0 600 400"><rect width="100%" height="100%" fill="#DDDDDD"/><path fill="#999999" d="m165.505 170.405-17.91 30.12v19.04h-9.12v-19.04l-17.91-30.12h8.06q1.19 0 1.88.57.7.58 1.17 1.47l8.98 16.42q.78 1.46 1.38 2.75.59 1.29 1.07 2.59.44-1.3 1.02-2.59.58-1.29 1.32-2.75l8.95-16.42q.37-.75 1.12-1.4.75-.64 1.9-.64h8.09Zm19.15 13.73q3.87 0 7.05 1.26 3.18 1.26 5.44 3.57 2.26 2.31 3.49 5.64 1.22 3.34 1.22 7.45 0 4.15-1.22 7.48-1.23 3.33-3.49 5.68-2.26 2.34-5.44 3.6-3.18 1.26-7.05 1.26-3.91 0-7.11-1.26-3.19-1.26-5.46-3.6-2.26-2.35-3.5-5.68-1.24-3.33-1.24-7.48 0-4.11 1.24-7.45 1.24-3.33 3.5-5.64 2.27-2.31 5.46-3.57 3.2-1.26 7.11-1.26Zm0 29.48q4.35 0 6.44-2.92 2.09-2.93 2.09-8.57 0-5.65-2.09-8.6-2.09-2.96-6.44-2.96-4.42 0-6.55 2.97-2.12 2.98-2.12 8.59 0 5.61 2.12 8.55 2.13 2.94 6.55 2.94Zm45.28-28.93h8.4v34.88h-5.13q-1.67 0-2.11-1.53l-.58-2.79q-2.14 2.18-4.72 3.52-2.59 1.34-6.09 1.34-2.85 0-5.05-.97-2.19-.96-3.69-2.73-1.49-1.77-2.26-4.2-.76-2.43-.76-5.36v-22.16h8.39v22.16q0 3.2 1.48 4.95t4.44 1.75q2.18 0 4.08-.97t3.6-2.67v-25.22Zm24.11 2.1.51 3.95q1.63-3.13 3.88-4.92 2.24-1.78 5.3-1.78 2.41 0 3.88 1.05l-.55 6.29q-.17.62-.49.87-.32.26-.87.26-.51 0-1.51-.17t-1.95-.17q-1.4 0-2.49.4-1.09.41-1.95 1.18-.87.76-1.53 1.85-.67 1.09-1.24 2.48v21.49h-8.4v-34.88h4.93q1.29 0 1.8.45.51.46.68 1.65Zm42.88 8.1v15.64q1.42 1.73 3.11 2.44 1.68.72 3.65.72 1.91 0 3.44-.72 1.53-.71 2.6-2.17t1.65-3.69q.57-2.23.57-5.25 0-3.06-.49-5.19-.49-2.12-1.41-3.45-.92-1.33-2.23-1.94-1.31-.61-2.97-.61-2.62 0-4.46 1.1-1.83 1.11-3.46 3.12Zm-1.13-8.67.68 3.23q2.15-2.42 4.87-3.91 2.72-1.5 6.39-1.5 2.85 0 5.22 1.19 2.36 1.19 4.08 3.45 1.71 2.26 2.65 5.58.93 3.31.93 7.6 0 3.91-1.05 7.24t-3.01 5.78q-1.95 2.45-4.73 3.82-2.77 1.38-6.2 1.38-2.92 0-5-.9-2.07-.9-3.7-2.5v14.28h-8.4v-46.27h5.13q1.63 0 2.14 1.53Zm39.75-17.17v19.38q2.04-1.91 4.49-3.1 2.45-1.19 5.74-1.19 2.86 0 5.07.97 2.21.97 3.69 2.72 1.48 1.75 2.24 4.18.77 2.43.77 5.36v22.2h-8.4v-22.2q0-3.2-1.46-4.95t-4.46-1.75q-2.17 0-4.08.99-1.9.98-3.6 2.68v25.23h-8.4v-50.52h8.4Zm45.39 15.09q3.88 0 7.05 1.26 3.18 1.26 5.44 3.57 2.27 2.31 3.49 5.64 1.22 3.34 1.22 7.45 0 4.15-1.22 7.48t-3.49 5.68q-2.26 2.34-5.44 3.6-3.17 1.26-7.05 1.26-3.91 0-7.11-1.26-3.19-1.26-5.45-3.6-2.26-2.35-3.51-5.68-1.24-3.33-1.24-7.48 0-4.11 1.24-7.45 1.25-3.33 3.51-5.64 2.26-2.31 5.45-3.57 3.2-1.26 7.11-1.26Zm0 29.48q4.35 0 6.44-2.92 2.09-2.93 2.09-8.57 0-5.65-2.09-8.6-2.09-2.96-6.44-2.96-4.42 0-6.55 2.97-2.12 2.98-2.12 8.59 0 5.61 2.12 8.55 2.13 2.94 6.55 2.94Zm35.26 6.49q-4.56 0-6.99-2.56-2.43-2.57-2.43-7.09v-19.48h-3.57q-.68 0-1.16-.45-.47-.44-.47-1.32v-3.33l5.61-.92 1.77-9.52q.17-.68.64-1.06.48-.37 1.23-.37h4.35v10.98h9.31v5.99h-9.31v18.9q0 1.63.8 2.55.8.92 2.19.92.78 0 1.31-.19t.92-.39q.39-.2.69-.39.31-.19.62-.19.37 0 .61.19t.51.56l2.51 4.08q-1.83 1.53-4.21 2.31t-4.93.78Zm29.1-35.97q3.88 0 7.06 1.26 3.18 1.26 5.44 3.57 2.26 2.31 3.48 5.64 1.23 3.34 1.23 7.45 0 4.15-1.23 7.48-1.22 3.33-3.48 5.68-2.26 2.34-5.44 3.6-3.18 1.26-7.06 1.26-3.91 0-7.1-1.26-3.2-1.26-5.46-3.6-2.26-2.35-3.5-5.68-1.24-3.33-1.24-7.48 0-4.11 1.24-7.45 1.24-3.33 3.5-5.64 2.26-2.31 5.46-3.57 3.19-1.26 7.1-1.26Zm0 29.48q4.35 0 6.44-2.92 2.1-2.93 2.1-8.57 0-5.65-2.1-8.6-2.09-2.96-6.44-2.96-4.42 0-6.54 2.97-2.13 2.98-2.13 8.59 0 5.61 2.13 8.55 2.12 2.94 6.54 2.94Zm25.13-43.21h7.89v19.44q0 3.1-.31 6.07-.31 2.98-.78 6.31h-5.71q-.48-3.33-.79-6.31-.3-2.97-.3-6.07v-19.44Zm-1.33 44.54q0-1.06.39-2.01.39-.95 1.09-1.63.7-.68 1.65-1.09.95-.41 2.04-.41 1.05 0 2.01.41.95.41 1.64 1.09.7.68 1.11 1.63.41.95.41 2.01 0 1.08-.41 2.02-.41.93-1.11 1.61-.69.68-1.64 1.08-.96.39-2.01.39-1.09 0-2.04-.39-.95-.4-1.65-1.08t-1.09-1.61q-.39-.94-.39-2.02Z"/></svg>