<svg xmlns="http://www.w3.org/2000/svg" width="600" height="600" viewBox="0 0 600 600"><rect width="100%" height="100%" fill="#DDDDDD"/><path fill="#999999" d="m239.93 236.035-46.11 77.53v49h-23.45v-49l-46.11-77.53h20.73q3.07 0 4.86 1.49 1.79 1.49 3.02 3.76l23.1 42.27q2.01 3.76 3.54 7.08 1.53 3.33 2.76 6.65 1.14-3.32 2.62-6.65 1.49-3.32 3.42-7.08l23.01-42.27q.96-1.92 2.89-3.58 1.92-1.67 4.9-1.67h20.82Zm49.26 35.35q9.98 0 18.16 3.24t14 9.19q5.82 5.95 8.97 14.52 3.15 8.58 3.15 19.17 0 10.67-3.15 19.25-3.15 8.57-8.97 14.61-5.82 6.04-14 9.27-8.18 3.24-18.16 3.24-10.06 0-18.28-3.24-8.23-3.23-14.05-9.27-5.82-6.04-9.01-14.61-3.19-8.58-3.19-19.25 0-10.59 3.19-19.17 3.19-8.57 9.01-14.52 5.82-5.95 14.05-9.19 8.22-3.24 18.28-3.24Zm0 75.87q11.2 0 16.59-7.53 5.38-7.52 5.38-22.05 0-14.52-5.38-22.14-5.39-7.61-16.59-7.61-11.37 0-16.84 7.66-5.47 7.65-5.47 22.09t5.47 22.01q5.47 7.57 16.84 7.57Zm116.55-74.47h21.62v89.78h-13.22q-4.28 0-5.42-3.94l-1.49-7.17q-5.51 5.6-12.16 9.05-6.65 3.46-15.66 3.46-7.35 0-13-2.49-5.64-2.5-9.49-7.05-3.85-4.55-5.82-10.8-1.97-6.26-1.97-13.79v-57.05h21.61v57.05q0 8.23 3.81 12.74 3.81 4.5 11.42 4.5 5.6 0 10.5-2.49 4.9-2.5 9.27-6.87v-64.93Zm46.82-36.75h20.3v50.05q0 7.97-.79 15.62-.79 7.66-2.01 16.23h-14.7q-1.23-8.57-2.02-16.23-.78-7.65-.78-15.62v-50.05Zm-3.42 114.63q0-2.71 1.01-5.16t2.8-4.2q1.79-1.75 4.24-2.8 2.45-1.05 5.25-1.05 2.72 0 5.17 1.05 2.45 1.05 4.24 2.8 1.79 1.75 2.84 4.2 1.05 2.45 1.05 5.16 0 2.8-1.05 5.21-1.05 2.4-2.84 4.15-1.79 1.75-4.24 2.76-2.45 1.01-5.17 1.01-2.8 0-5.25-1.01t-4.24-2.76q-1.79-1.75-2.8-4.15-1.01-2.41-1.01-5.21Z"/></svg>